<svg xmlns="http://www.w3.org/2000/svg" xml:space="preserve" width="200" height="85"><path d="m45.74 22.57-5.97 3.44a4.2 4.2 0 0 1-1.83.58c-.26 0-.93-.12-2.5-.94a25.9 25.9 0 0 0-3.6-1.6 20.37 20.37 0 0 0-3.46-.86 28.07 28.07 0 0 0-12.63 1.07c-2.74.9-5.24 2.24-7.43 3.98a22.9 22.9 0 0 0-3.94 4 17.62 17.62 0 0 0-2.5 4.51A13.67 13.67 0 0 0 1 41.53c0 2.45.68 4.86 2.02 7.19a19.45 19.45 0 0 0 5.64 6.07c2.2 1.55 4.8 2.77 7.72 3.6a32.8 32.8 0 0 0 12.46 1.07c1.02-.13 2.12-.34 3.26-.62l4.46-1.23c1.68-.52 3.08-.91 4.15-1.15 1.06-.24 2.01-.36 2.84-.36.81 0 1.52.08 2.12.24.46.13 3.87 1.35 4.82 1.8-1.06-.86-2.68-3.13-2.68-4.59V41.97H35.56v10.47c0 1.48-.66 2.62-2 3.48-1.4.9-3.42 1.36-5.98 1.36-4.86 0-8.26-1.75-10.37-5.33-.45-.7-.85-1.64-1.22-2.8a25.9 25.9 0 0 1-1.17-7.57 27 27 0 0 1 1.56-9.65 10.85 10.85 0 0 1 2.52-3.9 8.8 8.8 0 0 1 3.07-1.98c1.22-.49 2.5-.73 3.8-.73 2.2 0 4.4.43 6.57 1.27 2.17.84 4.32 2.14 6.4 3.85.04.03 2.47 1.95 6 6.15l1 1.2zm39.87 7.03c-2.06 0-4.08.32-5.98.96-1.9.64-3.63 1.54-5.11 2.68a13.45 13.45 0 0 0-3.53 3.94 9.25 9.25 0 0 0-1.29 4.65c0 2.12.75 4.14 2.23 5.99a15.23 15.23 0 0 0 5.95 4.37 19.95 19.95 0 0 0 7.98 1.62c2.88 0 5.6-.55 8.1-1.61a15.08 15.08 0 0 0 5.95-4.4 9.72 9.72 0 0 0 2.22-6.14c0-1.28-.28-2.54-.85-3.77a11.46 11.46 0 0 0-2.4-3.39 15.6 15.6 0 0 0-5.8-3.65 21.67 21.67 0 0 0-7.47-1.25zm-33.46.47 5.33 3.2v17.09l-5.3 3.2h18.68l-5.28-3.14V33.24l5.26-3.17zm49.15 0 5.26 3.18v17.08l-5.32 3.23h18.83l-5.33-3.2v-7.4h4.45l6.25 10.6h13.02l-5.72-3.3-3.56-6.07-7.97-1.29c1.67-.08 3.8-.24 4.98-.44 1.66-.27 3.08-.67 4.21-1.18a6.88 6.88 0 0 0 2.64-1.95c.62-.78.93-1.68.93-2.66 0-.92-.3-1.8-.86-2.65a6.84 6.84 0 0 0-2.32-2.08 13.1 13.1 0 0 0-3.88-1.36c-1.6-.34-3.27-.5-4.98-.5zm39 0 5.34 3.2v17.09l-5.3 3.2h18.67l-5.28-3.14V33.24l5.27-3.17zm20.59 0 5.27 3.17v17.12l-5.26 3.2H199l-6.03-3.29-10.6-12.83 5.1-4.09 7.14-3.28h-15.03zm18.75.03 5.95 3.03-11.23 8.94V33.2l5.28-3.11zm-93.5 1c1.75 0 3.14.32 4.13.93.97.6 1.7 1.62 2.13 3.02.46 1.45.7 3.45.7 5.94 0 1.33-.05 2.6-.14 3.8-.08 1.17-.2 2.09-.33 2.72a7.4 7.4 0 0 1-.84 2.2 5.04 5.04 0 0 1-2.2 1.99c-.93.44-2.11.66-3.51.66-2.23 0-3.9-.48-4.96-1.4a5.87 5.87 0 0 1-1.9-3.36c-.13-.61-.23-1.4-.3-2.32-.07-.93-.1-1.78-.1-2.52 0-1.36.05-2.67.14-3.9.09-1.2.2-2.2.36-2.9.18-.84.47-1.6.85-2.29a4.77 4.77 0 0 1 2.18-1.93 9.52 9.52 0 0 1 3.8-.63zm28.6.28h4.92c4.16 0 6.18 1.68 6.18 5.12 0 1.16-.21 2.12-.64 2.87a3.77 3.77 0 0 1-1.9 1.66c-.87.37-2 .56-3.36.56h-5.2zm61.35 11.04c.43.51 6.34 7.6 6.75 8.12l-3.28 2.96-5.2-3.14v-6.54l1.73-1.4zM93.94 57.46c-1.33 0-2.13 1.06-2.13 2.33 0 1.28.8 2.34 2.13 2.34 1.08 0 1.83-.74 1.9-1.8h-.77c-.06.64-.44 1.16-1.13 1.16-.95 0-1.35-.84-1.35-1.7 0-.85.4-1.7 1.35-1.7.65 0 .98.38 1.1.9h.79c-.1-.97-.89-1.52-1.89-1.53zm25.64 0c-1.34 0-2.13 1.06-2.13 2.33 0 1.28.8 2.34 2.13 2.34.54 0 .92-.16 1.34-.63l.11.52h.5v-2.34h-1.89v.59h1.18c-.01.75-.45 1.23-1.24 1.22-.95 0-1.35-.84-1.35-1.7 0-.85.4-1.7 1.35-1.7.56 0 1.07.3 1.14.9h.76c-.12-1.01-.93-1.53-1.9-1.53zm-53.83 0c-1.33 0-2.13 1.06-2.13 2.33 0 1.28.8 2.34 2.13 2.34 1.33 0 2.13-1.06 2.13-2.34 0-1.27-.8-2.33-2.13-2.33zm32.88 0c-1.33 0-2.13 1.06-2.13 2.33 0 1.28.8 2.34 2.13 2.34 1.33 0 2.13-1.06 2.13-2.34 0-1.27-.8-2.33-2.13-2.33zm4.92 0c-1.33 0-2.12 1.06-2.12 2.33 0 1.28.8 2.34 2.12 2.34 1.34 0 2.13-1.06 2.13-2.34 0-1.27-.8-2.33-2.13-2.33zm26.95 0c-1.33 0-2.13 1.06-2.13 2.33 0 1.28.8 2.34 2.13 2.34.35 0 .72-.08 1.05-.27l.65.57.37-.43-.57-.5c.44-.42.63-1.1.63-1.7 0-1.28-.8-2.34-2.13-2.34zm-77.94.1v4.46h.78v-4.45Zm1.89 0v4.46h.74v-3.28h.02l2.02 3.28h.82v-4.45h-.74v3.28l-2.04-3.28Zm4.69 0v4.46h.74v-3.28h.02l2.02 3.28h.82v-4.45H62v3.28H62l-2.03-3.28Zm9.14 0 1.48 4.46h.87l1.51-4.45h-.79l-1.14 3.52-1.12-3.52Zm7.5 0v.68h1.41v3.78h.78v-3.78h1.42v-.67Zm4.31 0v4.46h.78v-4.45Zm1.42 0 1.48 4.46h.87l1.52-4.45h-.8l-1.13 3.52h-.02l-1.1-3.52zm4.5 0v4.46h3.25v-.67h-2.47v-1.3h2.24v-.64H86.8v-1.17h2.42v-.67Zm20.58 0v4.46h.77v-1.5l.64-.63 1.46 2.13h.97l-1.9-2.68 1.77-1.77h-.95l-1.99 2.02v-2.02Zm4.45 0v4.46h.78v-4.45Zm1.9 0v4.46h.73v-3.28h.02l2.03 3.28h.82v-4.45h-.74v3.28h-.02l-2.03-3.28Zm11.55 0v4.46h3.25v-.67h-2.47v-1.3h2.25v-.64h-2.25v-1.17h2.43v-.67Zm9 0v2.86c0 1.14.72 1.7 1.82 1.7s1.82-.56 1.82-1.7v-2.85h-.77v2.6c0 .6-.04 1.28-1.05 1.28-1 0-1.05-.69-1.05-1.29v-2.6Zm4.73 0v4.46h.78v-4.45Zm6.26 0v4.46h.74v-3.44h.01l1.23 3.44h.64l1.24-3.44v3.44h.75v-4.45h-1.08l-1.2 3.48h-.01l-1.23-3.48zm5.74 0v4.46h3.24v-.67H151v-1.3h2.24v-.64H151v-1.17h2.42v-.67Zm4.08 0v4.46h.74v-3.28h.02l2.03 3.28h.82v-4.45h-.74v3.28h-.02l-2.03-3.28zm4.3 0v.68h1.4v3.78h.79v-3.78h1.41v-.67Zm-84.98 0-1.7 4.46h.8l.42-1.18h1.77l.42 1.18h.84l-1.72-4.45zm66.52 0v4.46h.78v-1.7h1.18c1.27 0 1.52-.83 1.52-1.37 0-.56-.25-1.38-1.52-1.38zm-74.39.54c.95 0 1.35.84 1.35 1.7 0 .85-.4 1.7-1.35 1.7-.95 0-1.35-.85-1.35-1.7 0-.86.4-1.7 1.35-1.7zm32.88 0c.95 0 1.35.84 1.35 1.7 0 .85-.4 1.7-1.35 1.7-.95 0-1.35-.85-1.35-1.7 0-.86.4-1.7 1.35-1.7zm4.92 0c.96 0 1.36.84 1.36 1.7 0 .85-.4 1.7-1.36 1.7-.95 0-1.35-.85-1.35-1.7 0-.86.4-1.7 1.35-1.7zm26.95 0c.96 0 1.35.84 1.35 1.7 0 .44-.1.9-.38 1.23l-.54-.47-.38.43.45.4c-.16.07-.34.1-.5.1-.95 0-1.35-.84-1.35-1.7 0-.85.4-1.7 1.35-1.7zm10.42.1h1.15c.41 0 .77.15.77.74 0 .56-.43.73-.78.73h-1.14zm-66.9.13h.02l.67 1.92h-1.36z" style="fill:#000"/><path d="m15.42 41.97 10.06 6.08 10.06-6.08Zm151 15.5c-.8 0-1.62.42-1.62 1.32 0 .46.23.92.99 1.13.6.16 1.01.25 1.32.36.18.07.37.21.37.55 0 .34-.25.68-.94.68-.62 0-1.13-.27-1.13-.96h-.78c.02 1.1.84 1.6 1.86 1.6.88 0 1.77-.4 1.77-1.4 0-.47-.28-.97-.87-1.14l-1.28-.34c-.32-.1-.53-.27-.53-.58 0-.45.45-.58.82-.58.53 0 .92.21.95.79h.78c0-.93-.78-1.43-1.7-1.43zm11.22 0c-1.34 0-2.13 1.07-2.13 2.34 0 1.27.8 2.33 2.13 2.33 1.08 0 1.83-.73 1.9-1.8h-.77c-.06.65-.44 1.17-1.13 1.17-.95 0-1.35-.84-1.35-1.7s.4-1.7 1.35-1.7c.65 0 .98.38 1.1.89h.79c-.1-.96-.89-1.52-1.9-1.53zm-8.51.11v4.46h.78v-4.46zm1.89 0v4.46h.74v-3.28h.02l2.03 3.28h.82v-4.46h-.74v3.29h-.02l-2.03-3.29zm9.42 0v4.46h3.24v-.68h-2.47v-1.3h2.25v-.64h-2.25v-1.16h2.43v-.68zm16.92 0c-.99 0-1.41.64-1.45 1.49h.71c-.01-.45.23-.9.73-.9.39 0 .67.25.67.62 0 .54-.49.7-.96.69V60c.56-.03 1.14.06 1.14.74 0 .5-.36.78-.84.78-.55 0-.84-.4-.82-.93h-.71c.02.91.52 1.53 1.53 1.53.84 0 1.55-.43 1.55-1.25 0-.97-.3-1.08-.8-1.18v-.02c.43-.15.62-.5.62-.93 0-.83-.7-1.17-1.37-1.17zm-7.32 0c-.95-.02-1.5.64-1.5 1.5 0 .89.55 1.47 1.37 1.47.4 0 .76-.2.94-.53l.02.01c-.05.58-.14 1.5-.9 1.5-.38 0-.61-.24-.64-.6h-.71c.03.71.62 1.2 1.31 1.2 1.24 0 1.65-1.22 1.65-2.27 0-1.27-.31-2.25-1.54-2.28zm3.8 0c-1.24 0-1.65 1.22-1.65 2.26 0 1.28.3 2.29 1.6 2.29.86 0 1.44-.65 1.44-1.5 0-.83-.5-1.46-1.37-1.46-.39 0-.75.17-.95.51.04-.58.12-1.5.9-1.5.36 0 .6.24.63.6h.71c-.03-.72-.62-1.2-1.31-1.2zm-7.57.09c-.1.52-.67.73-1.27.72v.56h1.07v3.09h.78v-4.37zm3.74.5c.53 0 .79.43.79.9 0 .48-.26.91-.8.91-.51 0-.75-.44-.75-.91 0-.48.24-.9.76-.9zm3.7 1.56h.04c.52 0 .77.42.77.89 0 .47-.25.91-.77.91-.51 0-.78-.43-.78-.91 0-.46.25-.9.74-.9z" style="fill:#c51a37"/></svg>