<svg width="399" height="400" viewBox="0 0 399 400" fill="none" xmlns="http://www.w3.org/2000/svg">
<g clip-path="url(#clip0_82_31)">
<path d="M399 0H0V400H399V0Z" fill="#979797"/>
<path d="M0 0H199.5V400H0V0Z" fill="url(#paint0_linear_82_31)"/>
<path d="M399 400H199.5V3.05176e-05H399V400Z" fill="url(#paint1_linear_82_31)"/>
<path d="M13.0313 214.394C8.58254 226.994 9.44758 239.471 15.6264 251.824L17.4801 255.901H-43.3199L-37.759 249.23C-29.3557 239.348 -22.8061 227.735 -18.1102 214.394L46.3972 21.6803C40.9598 15.7506 36.511 8.46211 33.0508 -0.185263C29.0964 -10.8092 29.8378 -18.3448 35.2752 -22.792C48.3744 -10.6857 71.7306 -4.6325 105.343 -4.6325C120.42 -4.6325 135.744 -5.74433 151.315 -7.96792L149.831 -0.185263C147.36 11.1799 148.472 23.7803 153.168 37.6162L212.114 213.281C216.563 226.871 224.595 239.224 236.212 250.342L242.143 255.901H121.656L123.139 250.342C126.352 239.471 125.857 227.117 121.656 213.281L112.388 186.228H22.2996L13.0313 214.394ZM67.8996 49.846L29.7143 163.991H105.343L67.8996 49.846Z" fill="white"/>
<path d="M344.237 390.601C344.237 404.436 348.068 416.79 355.73 427.661L359.067 432.479H238.579L241.915 427.661C249.577 416.79 253.408 404.436 253.408 390.601V213.082C253.408 206.658 252.296 200.111 250.072 193.44H222.267C221.772 211.723 216.705 226.918 207.067 239.024C197.428 251.13 185.194 255.825 170.365 253.107C175.06 245.448 177.532 232.353 177.779 213.823C178.026 195.046 175.925 180.84 171.477 171.204H426.169C421.968 180.84 419.99 195.046 420.238 213.823C420.484 232.353 422.957 245.448 427.652 253.107C412.576 255.825 400.218 251.13 390.579 239.024C381.187 226.918 376.244 211.723 375.75 193.44H347.574C345.35 200.111 344.237 206.658 344.237 213.082V390.601Z" fill="white"/>
</g>
<defs>
<linearGradient id="paint0_linear_82_31" x1="199.5" y1="5.95706e-06" x2="-0.343121" y2="399.827" gradientUnits="userSpaceOnUse">
<stop stop-color="#FF3833"/>
<stop offset="1" stop-color="#FF884A"/>
</linearGradient>
<linearGradient id="paint1_linear_82_31" x1="199.5" y1="400" x2="399.343" y2="0.172296" gradientUnits="userSpaceOnUse">
<stop stop-color="#8566FB"/>
<stop offset="1" stop-color="#5EC6F5"/>
</linearGradient>
<clipPath id="clip0_82_31">
<rect width="399" height="400" fill="white"/>
</clipPath>
</defs>
</svg>
